<svg width="640" height="640" viewBox="0 0 640 640" fill="none" xmlns="http://www.w3.org/2000/svg">
<rect width="640" height="640" fill="black"/>
<path d="M503 273C503 361.667 421.049 425 317.718 425C214.388 425 136 361.667 136 273" stroke="white" stroke-width="5" stroke-linecap="round"/>
<rect x="84.3662" y="280.924" width="86" height="51" transform="rotate(-17.2801 84.3662 280.924)" fill="black"/>
<path d="M500.5 272.5C500.5 281.579 495.802 290.497 486.726 298.884C477.647 307.273 464.372 314.943 447.758 321.437C414.546 334.417 368.494 342.5 317.5 342.5C266.506 342.5 220.454 334.417 187.242 321.437C170.628 314.943 157.353 307.273 148.274 298.884C139.198 290.497 134.5 281.579 134.5 272.5C134.5 263.421 139.198 254.503 148.274 246.116C157.353 237.727 170.628 230.057 187.242 223.563C220.454 210.583 266.506 202.5 317.5 202.5C368.494 202.5 414.546 210.583 447.758 223.563C464.372 230.057 477.647 237.727 486.726 246.116C495.802 254.503 500.5 263.421 500.5 272.5Z" stroke="white" stroke-width="5"/>
<rect x="487" y="263.26" width="21" height="13" transform="rotate(-23.1632 487 263.26)" fill="black"/>
<ellipse cx="319.5" cy="166.5" rx="7.5" ry="6.5" fill="white" fill-opacity="0.75"/>
<ellipse cx="291" cy="122.5" rx="7" ry="6.5" fill="white" fill-opacity="0.5"/>
<ellipse cx="334" cy="72.5" rx="7" ry="6.5" fill="white" fill-opacity="0.22"/>
<path d="M242.152 557C237.544 557 233.608 555.368 230.344 552.104C227.08 548.84 225.448 544.904 225.448 540.296H228.424C228.424 544.008 229.768 547.208 232.456 549.896C235.144 552.584 238.376 553.928 242.152 553.928C245.928 553.928 249.16 552.584 251.848 549.896C254.536 547.272 255.88 544.072 255.88 540.296C255.88 536.52 254.536 533.256 251.848 530.504C249.16 527.816 245.928 526.472 242.152 526.472C237.544 526.472 233.608 524.84 230.344 521.576C227.08 518.376 225.448 514.44 225.448 509.768C225.448 505.096 227.08 501.128 230.344 497.864C233.608 494.6 237.544 492.968 242.152 492.968C246.824 492.968 250.792 494.6 254.056 497.864C257.32 501.128 258.952 505.096 258.952 509.768H255.88C255.88 505.992 254.536 502.76 251.848 500.072C249.16 497.448 245.928 496.136 242.152 496.136C238.376 496.136 235.144 497.448 232.456 500.072C229.768 502.76 228.424 505.992 228.424 509.768C228.424 513.544 229.768 516.776 232.456 519.464C235.144 522.152 238.376 523.496 242.152 523.496C246.824 523.496 250.792 525.128 254.056 528.392C257.32 531.656 258.952 535.624 258.952 540.296C258.952 544.904 257.32 548.84 254.056 552.104C250.792 555.368 246.824 557 242.152 557ZM292.308 492.968C296.916 492.968 300.852 494.6 304.116 497.864C307.38 501.192 309.012 505.16 309.012 509.768V540.2C309.012 544.808 307.38 548.744 304.116 552.008C300.852 555.336 296.916 557 292.308 557C287.7 557 283.764 555.336 280.5 552.008C277.172 548.744 275.508 544.808 275.508 540.2V509.768C275.508 505.16 277.172 501.192 280.5 497.864C283.764 494.6 287.7 492.968 292.308 492.968ZM306.036 509.768C306.036 505.992 304.692 502.76 302.004 500.072C299.316 497.384 296.084 496.04 292.308 496.04C288.532 496.04 285.3 497.384 282.612 500.072C279.924 502.76 278.58 505.992 278.58 509.768V540.2C278.58 543.976 279.924 547.208 282.612 549.896C285.3 552.584 288.532 553.928 292.308 553.928C296.084 553.928 299.316 552.584 302.004 549.896C304.692 547.208 306.036 543.976 306.036 540.2V509.768ZM342.465 492.968C347.073 492.968 351.009 494.6 354.273 497.864C357.537 501.192 359.169 505.16 359.169 509.768V540.2C359.169 544.808 357.537 548.744 354.273 552.008C351.009 555.336 347.073 557 342.465 557C337.857 557 333.921 555.336 330.657 552.008C327.329 548.744 325.665 544.808 325.665 540.2V509.768C325.665 505.16 327.329 501.192 330.657 497.864C333.921 494.6 337.857 492.968 342.465 492.968ZM356.193 509.768C356.193 505.992 354.849 502.76 352.161 500.072C349.473 497.384 346.241 496.04 342.465 496.04C338.689 496.04 335.457 497.384 332.769 500.072C330.081 502.76 328.737 505.992 328.737 509.768V540.2C328.737 543.976 330.081 547.208 332.769 549.896C335.457 552.584 338.689 553.928 342.465 553.928C346.241 553.928 349.473 552.584 352.161 549.896C354.849 547.208 356.193 543.976 356.193 540.2V509.768ZM392.621 492.968C397.229 492.968 401.165 494.6 404.429 497.864C407.693 501.192 409.325 505.16 409.325 509.768C409.325 514.376 407.693 518.312 404.429 521.576C401.165 524.904 397.229 526.568 392.621 526.568H378.893V557H375.821V492.968H392.621ZM392.621 523.496C396.397 523.496 399.629 522.152 402.317 519.464C405.005 516.776 406.349 513.544 406.349 509.768C406.349 505.992 405.005 502.76 402.317 500.072C399.629 497.384 396.397 496.04 392.621 496.04H378.893V523.496H392.621Z" fill="white"/>
</svg>
